<?xml version="1.0" encoding="UTF-8" standalone="no"?>
<!-- Created with Inkscape (http://www.inkscape.org/) -->

<svg
   xmlns:dc="http://purl.org/dc/elements/1.1/"
   xmlns:cc="http://creativecommons.org/ns#"
   xmlns:rdf="http://www.w3.org/1999/02/22-rdf-syntax-ns#"
   xmlns:svg="http://www.w3.org/2000/svg"
   xmlns="http://www.w3.org/2000/svg"
   xmlns:sodipodi="http://sodipodi.sourceforge.net/DTD/sodipodi-0.dtd"
   xmlns:inkscape="http://www.inkscape.org/namespaces/inkscape"
   width="210mm"
   height="297mm"
   viewBox="0 0 210 297"
   version="1.1"
   id="svg8"
   inkscape:version="0.92.4 (5da689c313, 2019-01-14)"
   sodipodi:docname="user.svg">
  <defs
     id="defs2">
    <clipPath
       id="clipPath32"
       clipPathUnits="userSpaceOnUse">
      <path
         inkscape:connector-curvature="0"
         id="path30"
         d="m 4700.21,2500.21 c 0,-360.97 -292.63,-653.59 -653.59,-653.59 -360.97,0 -653.59,292.62 -653.59,653.59 0,360.97 292.62,653.59 653.59,653.59 360.96,0 653.59,-292.62 653.59,-653.59 z" />
    </clipPath>
    <clipPath
       id="clipPath80"
       clipPathUnits="userSpaceOnUse">
      <path
         inkscape:connector-curvature="0"
         id="path78"
         d="m 3153.8,953.801 c 0,-360.969 -292.62,-653.59 -653.59,-653.59 -360.97,0 -653.59,292.621 -653.59,653.59 0,360.969 292.62,653.589 653.59,653.589 360.97,0 653.59,-292.62 653.59,-653.589 z" />
    </clipPath>
    <clipPath
       id="clipPath118"
       clipPathUnits="userSpaceOnUse">
      <path
         inkscape:connector-curvature="0"
         id="path116"
         d="m 3153.99,4046.62 c 0,-360.97 -292.63,-653.59 -653.59,-653.59 -360.97,0 -653.59,292.62 -653.59,653.59 0,360.97 292.62,653.59 653.59,653.59 360.96,0 653.59,-292.62 653.59,-653.59 z" />
    </clipPath>
    <clipPath
       id="clipPath182"
       clipPathUnits="userSpaceOnUse">
      <path
         inkscape:connector-curvature="0"
         id="path180"
         d="m 1607.39,4046.62 c 0,-360.97 -292.62,-653.59 -653.589,-653.59 -360.969,0 -653.59,292.62 -653.59,653.59 0,360.97 292.621,653.59 653.59,653.59 360.969,0 653.589,-292.62 653.589,-653.59 z" />
    </clipPath>
    <clipPath
       id="clipPath224"
       clipPathUnits="userSpaceOnUse">
      <path
         inkscape:connector-curvature="0"
         id="path222"
         d="m 1607.39,2500.21 c 0,-360.97 -292.62,-653.59 -653.589,-653.59 -360.969,0 -653.59,292.62 -653.59,653.59 0,360.97 292.621,653.59 653.59,653.59 360.969,0 653.589,-292.62 653.589,-653.59 z" />
    </clipPath>
    <clipPath
       id="clipPath294"
       clipPathUnits="userSpaceOnUse">
      <path
         inkscape:connector-curvature="0"
         id="path292"
         d="m 3153.8,2500.21 c 0,-360.97 -292.62,-653.59 -653.59,-653.59 -360.97,0 -653.59,292.62 -653.59,653.59 0,360.97 292.62,653.59 653.59,653.59 360.97,0 653.59,-292.62 653.59,-653.59 z" />
    </clipPath>
    <clipPath
       id="clipPath342"
       clipPathUnits="userSpaceOnUse">
      <path
         inkscape:connector-curvature="0"
         id="path340"
         d="m 1607.39,953.801 c 0,-360.969 -292.62,-653.59 -653.589,-653.59 -360.969,0 -653.59,292.621 -653.59,653.59 0,360.969 292.621,653.589 653.59,653.589 360.969,0 653.589,-292.62 653.589,-653.589 z" />
    </clipPath>
    <clipPath
       id="clipPath390"
       clipPathUnits="userSpaceOnUse">
      <path
         inkscape:connector-curvature="0"
         id="path388"
         d="m 4700.21,953.801 c 0,-360.969 -292.63,-653.59 -653.59,-653.59 -360.97,0 -653.59,292.621 -653.59,653.59 0,360.969 292.62,653.589 653.59,653.589 360.96,0 653.59,-292.62 653.59,-653.589 z" />
    </clipPath>
    <clipPath
       id="clipPath432"
       clipPathUnits="userSpaceOnUse">
      <path
         inkscape:connector-curvature="0"
         id="path430"
         d="m 4700.21,4046.62 c 0,-360.97 -292.63,-653.59 -653.59,-653.59 -360.97,0 -653.59,292.62 -653.59,653.59 0,360.97 292.62,653.59 653.59,653.59 360.96,0 653.59,-292.62 653.59,-653.59 z" />
    </clipPath>
  </defs>
  <sodipodi:namedview
     id="base"
     pagecolor="#ffffff"
     bordercolor="#666666"
     borderopacity="1.0"
     inkscape:pageopacity="0.0"
     inkscape:pageshadow="2"
     inkscape:zoom="0.35"
     inkscape:cx="414.67739"
     inkscape:cy="560"
     inkscape:document-units="mm"
     inkscape:current-layer="g20"
     showgrid="false"
     inkscape:window-width="1366"
     inkscape:window-height="715"
     inkscape:window-x="0"
     inkscape:window-y="27"
     inkscape:window-maximized="1" />
  <metadata
     id="metadata5">
    <rdf:RDF>
      <cc:Work
         rdf:about="">
        <dc:format>image/svg+xml</dc:format>
        <dc:type
           rdf:resource="http://purl.org/dc/dcmitype/StillImage" />
        <dc:title></dc:title>
      </cc:Work>
    </rdf:RDF>
  </metadata>
  <g
     inkscape:label="Layer 1"
     inkscape:groupmode="layer"
     id="layer1">
    <g
       transform="matrix(0.35277777,0,0,-0.35277777,12.343524,227.96005)"
       inkscape:label="ink_ext_XXXXXX"
       id="g18">
      <g
         transform="scale(0.1)"
         id="g20">
        <path
           inkscape:connector-curvature="0"
           id="path72"
           style="fill:#b8ded9;fill-opacity:1;fill-rule:nonzero;stroke:none"
           d="m 3196.6571,2860.9439 c 0,-360.969 -292.62,-653.59 -653.59,-653.59 -360.97,0 -653.59,292.621 -653.59,653.59 0,360.969 292.62,653.589 653.59,653.589 360.97,0 653.59,-292.62 653.59,-653.589" />
        <g
           id="g74"
           transform="translate(42.857126,1907.1429)">
          <g
             clip-path="url(#clipPath80)"
             id="g76">
            <path
               inkscape:connector-curvature="0"
               id="path82"
               style="fill:#2e333c;fill-opacity:1;fill-rule:nonzero;stroke:none"
               d="m 2877.37,1076.3 c 0.55,-0.91 1.02,-1.89 1.35,-2.93 1.02,-3.37 0.49,-6.89 -1.6,-10.48 -6.14,-10.52 -22.28,-17.98 -30.74,-21.3 -1.83,5.12 -3.71,8.54 -3.71,8.54 0,0 29.15,12.58 34.7,26.17 z m -259.07,418.75 c -23.41,3.82 -30.49,-9.79 -30.49,-9.79 v 0.04 c 4.4,10.97 13.77,26.97 30.97,26.22 15.42,-0.7 22.39,-20.41 25.53,-36.17 -2.36,5.85 -8.96,16.93 -26.01,19.7 z m -443.78,-177.79 c -2.56,8.84 -5.25,23.49 2.15,30.62 2.96,2.86 6.84,4.27 10.91,4.91 -0.01,-8.83 4.63,-17.44 7.78,-22.26 -4.54,-1.25 -14.23,-4.87 -20.84,-13.27 z m -49.34,-24.3 c 3.97,4.78 10.78,10.14 21.08,8.54 9.43,-1.48 16.74,-10.32 21.57,-18.37 -6.57,2.82 -26.57,10.65 -42.65,9.83 z m -11.4,-174.85 c -5.59,9.06 -10.66,23.38 0.24,37 11.11,13.89 26.1,19.7 35.88,22.1 -6.39,-7.59 -29.86,-36.6 -36.12,-59.1 z m 84.06,213.53 c -2.99,4.51 -7.53,13 -7.44,21.42 4.52,0.31 9.08,-0.14 12.79,-0.85 -6.23,-5.96 -5.55,-18.23 -5.35,-20.57 z m -5.53,29.96 c 1.24,2.32 3.13,3.8 5.79,4.51 6.53,1.73 15.9,-1.66 22.78,-4.88 -2.94,-0.82 -9.67,-2.99 -15.07,-6.87 -4.12,0.95 -9.65,1.78 -15.35,1.42 0.29,1.99 0.84,3.94 1.85,5.82 z m 702.1,-174.19 c 3.26,59.95 -46.29,64.76 -46.29,64.76 0,0 18.52,4.91 14.15,19.07 -3.48,11.34 -16.63,18.41 -21.77,20.8 7.18,0.64 17.34,1.99 28.46,4.88 0.7,0.18 1.13,0.91 0.95,1.62 -0.18,0.7 -0.91,1.12 -1.61,0.95 -11.18,-2.91 -21.33,-4.23 -28.4,-4.85 10.37,10.94 67.29,76.12 13.12,137.25 -59.36,66.98 -127.98,0.54 -127.98,0.54 0,0 -17.43,75.15 -45.75,73.52 -21.29,-1.23 -29.65,-20 -32.49,-29.24 -3.35,16.41 -10.91,36.67 -27.9,37.46 -16.05,0.82 -25.78,-11.75 -31.2,-22.7 -0.99,13.67 -8.23,45.57 -54.49,47.7 -58.96,2.72 -66.3,-63.17 -66.3,-63.17 0,0 -35.95,16.88 -63.18,9.8 -23.67,-6.16 -37.03,-31.21 -40.13,-37.66 -0.85,8.76 -1.38,21.91 1.3,33.88 0.16,0.71 -0.28,1.41 -1,1.57 -0.73,0.16 -1.42,-0.28 -1.58,-1 -2.79,-12.44 -2.25,-25.7 -1.37,-34.62 -0.35,0.25 -0.77,0.54 -1.21,0.84 -5.5,13.14 -6.93,24.71 -6.95,24.86 -0.08,0.71 -0.67,1.24 -1.46,1.16 -0.72,-0.09 -1.25,-0.74 -1.16,-1.47 0.06,-0.54 1.25,-10.17 5.66,-21.94 -21.15,13.77 -85.26,50.01 -125.28,13.15 -42.44,-39.12 -16.77,-88.67 -9.74,-100.37 -7.14,3.22 -16.45,6.31 -23.39,4.46 -3.36,-0.89 -5.87,-2.84 -7.45,-5.82 -1.28,-2.4 -1.94,-4.88 -2.22,-7.38 -4.75,-0.67 -9.35,-2.24 -12.91,-5.68 -9.12,-8.78 -5.1,-26.45 -2.25,-35.38 -5.45,-9.31 -4.28,-22.32 -3.22,-28.61 -5.11,8.16 -12.72,16.76 -22.7,18.33 -12.98,2 -21,-5.8 -25.03,-11.42 -8.96,-1.28 -16.11,-5.89 -17.98,-16.56 -5.98,-34.32 49.02,-54.47 49.02,-54.47 0,0 -28.32,-3.8 -26.69,-19.06 1.37,-12.8 18.35,-20.54 23.8,-22.71 -10.18,-2.44 -26.08,-8.44 -37.84,-23.13 -12.59,-15.74 -5.36,-32.45 0.98,-41.98 -1.18,-5.77 -1.07,-11 1.08,-15.11 11.98,-22.87 37.04,-8.71 37.04,-8.71 0,0 -17.98,-33.76 -13.08,-46.83 4.91,-13.07 26.15,-11.44 26.15,-11.44 0,0 -15.25,-25.05 -6.54,-45.2 8.72,-20.148 34.31,-20.691 34.31,-20.691 0,0 -17.43,-23.418 -6.54,-37.579 10.9,-14.16 44.66,-5.992 44.66,-5.992 0,0 -8.17,-24.5 0,-32.679 8.17,-8.161 27.23,0 27.23,0 0,0 -4.36,-44.11 25.59,-53.368 29.96,-9.261 58.82,23.969 58.82,23.969 l 437.85,143.22 c 0,0 46.83,-18.521 63.17,-1.08 9.94,10.59 7.78,25.6 4.57,35.75 8.72,3.4 25.52,11.13 32.16,22.51 2.48,4.26 3.1,8.49 1.84,12.6 -0.64,2.08 -1.71,3.92 -2.97,5.54 0.1,1.04 0.05,2.07 -0.2,3.11 -3.82,15.79 -39.75,10.89 -39.75,10.89 0,0 52.82,33.76 56.09,93.71" />
            <path
               inkscape:connector-curvature="0"
               id="path84"
               style="fill:#2e333c;fill-opacity:1;fill-rule:nonzero;stroke:none"
               d="m 2080.85,299.57 c 0,0 52.98,194.571 153.06,283.231 100.08,88.66 141.76,78.398 141.76,78.398 0,0 89.06,-89.629 160.76,-83.23 71.71,6.402 98.64,78.113 98.64,78.113 0,0 101.89,-11.684 180.61,-121.684 96.63,-135.039 103.9,-234.828 103.9,-234.828 h -838.73" />
            <path
               inkscape:connector-curvature="0"
               id="path86"
               style="fill:#d3744a;fill-opacity:1;fill-rule:nonzero;stroke:none"
               d="m 2384.9,667.898 c 0,0 -46.84,79.821 -56.65,149.872 -9.8,70.05 -7,147.789 -7,147.789 0,0 -23.82,11.921 -19.61,41.331 4.2,29.42 35.02,28.02 35.02,28.02 0,0 34.14,32.93 48.24,51.83 14.1,18.92 44.22,62.35 44.22,62.35 0,0 88.96,-23.82 168.82,-11.2 79.85,12.6 119.08,46.92 119.08,46.92 0,0 57.44,-48.33 69.34,-107.17 11.91,-58.84 19.99,-133.98 -44.56,-202.089 -64.54,-68.102 -126.55,-80.809 -126.55,-80.809 0,0 -1.02,-36.082 3.56,-64.543 4.57,-28.469 16.26,-68.109 16.26,-68.109 0,0 -21.34,-69.121 -81.82,-78.27 -60.48,-9.148 -142.55,44.649 -168.35,84.078" />
            <path
               inkscape:connector-curvature="0"
               id="path88"
               style="fill:#c55c2c;fill-opacity:1;fill-rule:nonzero;stroke:none"
               d="m 2543.86,1054.41 -53,-1.63 -4.89,43.21 38.73,11.42 19.16,-53" />
            <path
               inkscape:connector-curvature="0"
               id="path90"
               style="fill:#c55c2c;fill-opacity:1;fill-rule:nonzero;stroke:none"
               d="m 2764.02,1101.7 -38.73,-13.45 -8.97,55.45 29.36,-4.49 18.34,-37.51" />
            <path
               inkscape:connector-curvature="0"
               id="path92"
               style="fill:#2e333c;fill-opacity:1;fill-rule:nonzero;stroke:none"
               d="m 2617.55,942.141 c -26.21,0 -45.65,12.961 -46.56,13.578 -1.81,1.23 -2.28,3.691 -1.06,5.511 1.23,1.809 3.69,2.29 5.51,1.059 0.23,-0.16 23.27,-15.391 51.47,-11.578 2.22,0.289 4.17,-1.231 4.46,-3.402 0.3,-2.18 -1.23,-4.18 -3.4,-4.457 -3.56,-0.493 -7.05,-0.711 -10.42,-0.711" />
            <path
               inkscape:connector-curvature="0"
               id="path94"
               style="fill:#2e333c;fill-opacity:1;fill-rule:nonzero;stroke:none"
               d="m 2653.73,999.91 c -12.44,0 -23.83,5.82 -24.45,6.13 -1.94,1.01 -2.7,3.4 -1.7,5.34 1.01,1.95 3.42,2.7 5.35,1.71 0.16,-0.09 16.47,-8.36 28.92,-3.97 5.09,1.78 8.78,5.39 11.3,11.03 10.15,22.75 -17.82,37.86 -19.02,38.5 -1.94,1.01 -2.68,3.42 -1.65,5.35 1.01,1.94 3.4,2.68 5.35,1.67 12.41,-6.52 33.11,-25.1 22.57,-48.76 -3.41,-7.64 -8.78,-12.78 -15.95,-15.29 -3.51,-1.23 -7.16,-1.71 -10.72,-1.71" />
            <path
               inkscape:connector-curvature="0"
               id="path96"
               style="fill:#2e333c;fill-opacity:1;fill-rule:nonzero;stroke:none"
               d="m 2485.97,1092.03 c -1.72,0 -3.3,1.12 -3.81,2.85 -0.62,2.1 0.59,4.3 2.68,4.92 l 38.73,11.42 c 2.1,0.62 4.32,-0.58 4.93,-2.69 0.63,-2.1 -0.57,-4.31 -2.68,-4.92 l -38.73,-11.42 c -0.37,-0.11 -0.75,-0.16 -1.12,-0.16" />
            <path
               inkscape:connector-curvature="0"
               id="path98"
               style="fill:#2e333c;fill-opacity:1;fill-rule:nonzero;stroke:none"
               d="m 2745.68,1135.24 c -0.2,0 -0.4,0.02 -0.61,0.05 l -29.35,4.48 c -2.16,0.33 -3.65,2.36 -3.32,4.53 0.33,2.16 2.4,3.64 4.52,3.32 l 29.36,-4.49 c 2.16,-0.32 3.65,-2.35 3.32,-4.52 -0.3,-1.96 -1.99,-3.37 -3.92,-3.37" />
            <path
               inkscape:connector-curvature="0"
               id="path100"
               style="fill:#2e333c;fill-opacity:1;fill-rule:nonzero;stroke:none"
               d="m 2543.74,1058.37 -53.01,-1.63 c -2.19,-0.07 -3.91,-1.89 -3.84,-4.08 0.06,-2.15 1.83,-3.85 3.97,-3.85 0.04,0 0.08,0 0.12,0 l 18.8,0.58 c 1.79,-3.6 5.52,-6.06 9.81,-5.94 4.28,0.14 7.85,2.82 9.41,6.54 l 14.98,0.45 c 2.2,0.07 3.92,1.9 3.85,4.09 -0.07,2.19 -2.01,4.08 -4.09,3.84" />
            <path
               inkscape:connector-curvature="0"
               id="path102"
               style="fill:#2e333c;fill-opacity:1;fill-rule:nonzero;stroke:none"
               d="m 2767.77,1103 c -0.72,2.08 -3,3.18 -5.05,2.45 L 2723.99,1092 c -2.08,-0.72 -3.17,-2.98 -2.45,-5.05 0.57,-1.64 2.11,-2.67 3.75,-2.67 0.43,0 0.87,0.07 1.3,0.22 l 11.74,4.08 c 2.27,-3.03 6.22,-4.46 9.98,-3.16 3.77,1.3 5.98,4.89 5.89,8.67 l 11.13,3.86 c 2.07,0.73 3.16,2.98 2.44,5.05" />
            <path
               inkscape:connector-curvature="0"
               id="path104"
               style="fill:#c55c2c;fill-opacity:1;fill-rule:nonzero;stroke:none"
               d="m 2335.99,1014.3 c -0.02,0.06 0,0.12 -0.03,0.17 0,0.01 0,0.01 -0.01,0.02 -1.67,7.13 -4.03,11.34 -4.21,11.64 -1.11,1.88 -3.54,2.51 -5.44,1.38 -1.88,-1.11 -2.5,-3.55 -1.38,-5.43 0.03,-0.05 1.39,-2.51 2.65,-6.81 -10.14,-4.92 -15.23,-12.11 -15.45,-12.45 -1.24,-1.81 -0.78,-4.281 1.03,-5.519 0.68,-0.473 1.47,-0.692 2.24,-0.692 1.26,0 2.51,0.602 3.28,1.723 0.04,0.059 3.5,4.958 10.53,8.848 0.54,-4.36 0.71,-9.5 -0.09,-15.489 -0.3,-2.16 1.23,-4.171 3.4,-4.461 0.18,-0.019 0.36,-0.031 0.53,-0.031 1.97,0 3.67,1.449 3.93,3.442 1.31,9.729 0.41,17.689 -0.98,23.659" />
            <path
               inkscape:connector-curvature="0"
               id="path106"
               style="fill:#c55c2c;fill-opacity:1;fill-rule:nonzero;stroke:none"
               d="m 2615.25,794.742 c 0,0 -33.65,-10.39 -76.8,-4.012 -43.14,6.36 -96.58,32.352 -96.58,32.352 0,0 22.06,-32.352 81.39,-50.012 59.32,-17.648 91.99,-5.879 91.99,-5.879 v 27.551" />
            <path
               inkscape:connector-curvature="0"
               id="path108"
               style="fill:#d869b6;fill-opacity:1;fill-rule:nonzero;stroke:none"
               d="m 2534.76,574.66 c -2.2,0 -4.42,0.07 -6.7,0.219 -78.62,4.91 -154.92,84.172 -158.14,87.551 -3.01,3.172 -2.89,8.191 0.28,11.218 3.17,3.012 8.19,2.903 11.22,-0.277 0.74,-0.781 75.26,-78.133 147.63,-82.652 69.62,-4.278 98.27,73.269 98.55,74.051 1.47,4.128 6.03,6.281 10.15,4.8 4.12,-1.48 6.27,-6.019 4.79,-10.148 -0.31,-0.871 -31.25,-84.762 -107.78,-84.762" />
          </g>
        </g>
      </g>
    </g>
  </g>
</svg>
